HIERARCHY
ROOT Hips
{
	OFFSET 0.00000 0.00000 0.00000
	CHANNELS 6 Xposition Yposition Zposition Zrotation Yrotation Xrotation 
	JOINT LHipJoint
	{
		OFFSET 0 0 0
		CHANNELS 3 Zrotation Yrotation Xrotation
		JOINT LeftUpLeg
		{
			OFFSET 1.77779 -1.88989 0.48267
			CHANNELS 3 Zrotation Yrotation Xrotation
			JOINT LeftLeg
			{
				OFFSET 2.53442 -6.96327 0.00000
				CHANNELS 3 Zrotation Yrotation Xrotation
				JOINT LeftFoot
				{
					OFFSET 2.71068 -7.44755 0.00000
					CHANNELS 3 Zrotation Yrotation Xrotation
					JOINT LeftToeBase
					{
						OFFSET 0.17992 -0.49431 2.22524
						CHANNELS 3 Zrotation Yrotation Xrotation
						End Site
						{
							OFFSET 0.00000 -0.00000 1.14687
						}
					}
				}
			}
		}
	}
	JOINT RHipJoint
	{
		OFFSET 0 0 0
		CHANNELS 3 Zrotation Yrotation Xrotation
		JOINT RightUpLeg
		{
			OFFSET -1.58469 -1.88989 0.48267
			CHANNELS 3 Zrotation Yrotation Xrotation
			JOINT RightLeg
			{
				OFFSET -2.60386 -7.15404 0.00000
				CHANNELS 3 Zrotation Yrotation Xrotation
				JOINT RightFoot
				{
					OFFSET -2.73334 -7.50979 0.00000
					CHANNELS 3 Zrotation Yrotation Xrotation
					JOINT RightToeBase
					{
						OFFSET -0.25618 -0.70384 2.21822
						CHANNELS 3 Zrotation Yrotation Xrotation
						End Site
						{
							OFFSET -0.00000 -0.00000 1.16381
						}
					}
				}
			}
		}
	}
	JOINT LowerBack
	{
		OFFSET 0 0 0
		CHANNELS 3 Zrotation Yrotation Xrotation
		JOINT Spine
		{
			OFFSET 0.03410 2.01612 -0.22230
			CHANNELS 3 Zrotation Yrotation Xrotation
			JOINT Spine1
			{
				OFFSET 0.03465 2.03012 0.00937
				CHANNELS 3 Zrotation Yrotation Xrotation
				JOINT Neck
				{
					OFFSET 0 0 0
					CHANNELS 3 Zrotation Yrotation Xrotation
					JOINT Neck1
					{
						OFFSET -0.00219 1.70459 0.20857
						CHANNELS 3 Zrotation Yrotation Xrotation
						JOINT Head
						{
							OFFSET 0.02518 1.72339 -0.22179
							CHANNELS 3 Zrotation Yrotation Xrotation
							End Site
							{
								OFFSET 0.00282 1.74122 -0.09823
							}
						}
					}
				}
				JOINT LeftShoulder
				{
					OFFSET 0 0 0
					CHANNELS 3 Zrotation Yrotation Xrotation
					JOINT LeftArm
					{
						OFFSET 3.36358 1.00547 -0.37661
						CHANNELS 3 Zrotation Yrotation Xrotation
						JOINT LeftForeArm
						{
							OFFSET 5.06507 -0.00000 0.00000
							CHANNELS 3 Zrotation Yrotation Xrotation
							JOINT LeftHand
							{
								OFFSET 3.60196 -0.00000 0.00000
								CHANNELS 3 Zrotation Yrotation Xrotation
								JOINT LeftFingerBase
								{
									OFFSET 0 0 0
									CHANNELS 3 Zrotation Yrotation Xrotation
									JOINT LeftHandIndex1
									{
										OFFSET 0.45035 -0.00000 0.00000
										CHANNELS 3 Zrotation Yrotation Xrotation
										End Site
										{
											OFFSET 0.36308 -0.00000 0.00000
										}
									}
								}
								JOINT LThumb
								{
									OFFSET 0 0 0
									CHANNELS 3 Zrotation Yrotation Xrotation
									End Site
									{
										OFFSET 0.36862 -0.00000 0.36862
									}
								}
							}
						}
					}
				}
				JOINT RightShoulder
				{
					OFFSET 0 0 0
					CHANNELS 3 Zrotation Yrotation Xrotation
					JOINT RightArm
					{
						OFFSET -3.50159 0.80383 -0.71526
						CHANNELS 3 Zrotation Yrotation Xrotation
						JOINT RightForeArm
						{
							OFFSET -5.36394 -0.00000 0.00000
							CHANNELS 3 Zrotation Yrotation Xrotation
							JOINT RightHand
							{
								OFFSET -3.58035 -0.00000 0.00000
								CHANNELS 3 Zrotation Yrotation Xrotation
								JOINT RightFingerBase
								{
									OFFSET 0 0 0
									CHANNELS 3 Zrotation Yrotation Xrotation
									JOINT RightHandIndex1
									{
										OFFSET -0.66375 -0.00000 0.00000
										CHANNELS 3 Zrotation Yrotation Xrotation
										End Site
										{
											OFFSET -0.53513 -0.00000 0.00000
										}
									}
								}
								JOINT RThumb
								{
									OFFSET 0 0 0
									CHANNELS 3 Zrotation Yrotation Xrotation
									End Site
									{
										OFFSET -0.54330 -0.00000 0.54330
									}
								}
							}
						}
					}
				}
			}
		}
	}
}
MOTION
Frames: 16
Frame Time: .0083333
-0.9195 17.2067 -32.3062 0 0 0 0 0 0 -21 0 0 0 0 0 0 0 0 0 0 0 0 0 0 21 0 0 0 0 0 0 0 0 0 0 0 0 0 0 0 0 0 0 0 0 0 0 -16 0 0 21 0 0 11 0 0 0 -8 0 0 0 0 0 0 0 0 0 0 0 0 0 0 0 0 0 0 0 0 8 0 0 0 0 0 0 0 0 0 0 0 0 0 0 0 0 0
-0.9195 17.2067 -32.3062 -6.5171 -2.1115 6.0101 0.0000 0.0000 0.0000 -8.6848 -1.7450 -26.7291 25.0492 19.3774 104.9116 -0.1654 -10.3952 11.7950 0.0004 0.1283 0.3525 0.0000 0.0000 0.0000 33.7092 11.1571 -19.6418 -6.5487 -14.9398 47.1461 -1.2486 -10.0779 -26.9499 -0.0874 1.9069 -5.2486 3.1755 0.3620 17.3357 3.1136 1.4043 0.4907 1.2207 0.6066 -9.2274 -1.3041 -3.1588 -21.8599 1.7646 -4.1814 12.2822 0.2728 -1.8849 7.3885 -0.0000 0.0000 0.0000 -85.9774 21.1562 44.7467 104.9346 -59.1402 -72.8964 -0.0000 0.0000 -29.2947 25.8353 2.5546 1.2363 -7.1250 0.0000 -0.0000 -0.6155 32.8171 0.1837 -0.0000 0.0000 0.0000 86.5998 -7.2639 40.8272 -111.5286 58.1742 -78.5300 0.0000 -0.0000 -7.8936 -26.9459 36.5664 -16.8486 7.1250 -0.0000 -0.0000 3.6155 9.7135 4.1813
-0.9273 17.2609 -31.8223 -6.5006 -1.2206 5.8052 0.0000 0.0000 0.0000 -8.3837 -2.9184 -29.0558 25.0219 19.3843 104.8292 -0.1317 -9.7729 11.4105 0.0666 1.6654 4.5817 0.0000 0.0000 0.0000 34.0089 9.7851 -17.5963 -6.3281 -14.7389 46.2846 -1.1929 -10.3739 -26.7756 -0.1693 2.6507 -7.3078 3.1681 0.3048 17.5110 3.3161 1.3755 0.1500 1.4563 0.5937 -9.7088 -1.9078 -3.3488 -20.4894 1.8544 -4.2980 12.1898 0.4035 -1.9733 7.1512 -0.0000 -0.0000 0.0000 -86.0890 23.0579 45.1875 106.7308 -58.9154 -74.4366 -0.0000 0.0000 -29.8339 26.2544 2.7412 1.3513 -7.1250 0.0000 -0.0000 -0.2794 33.0356 0.0819 -0.0000 -0.0000 0.0000 86.2918 -7.6833 41.3252 -115.0757 57.4854 -81.5329 0.0000 -0.0000 -9.7547 -27.6966 35.9234 -17.1179 7.1250 -0.0000 -0.0000 3.0811 9.2617 3.5415
-0.9318 17.3244 -31.3318 -6.6638 -0.4888 5.5720 0.0000 0.0000 0.0000 -7.9755 -3.8949 -31.1303 24.8025 19.4378 104.1690 -0.1560 -9.4345 10.2063 0.0383 1.2631 3.4730 0.0000 0.0000 0.0000 34.4519 8.4932 -15.3733 -6.0715 -14.4972 45.2679 -1.0771 -10.5295 -26.0328 -0.2698 3.3414 -9.2307 3.3344 0.4100 17.8579 3.4917 1.6017 -0.1062 1.4985 0.6932 -10.1928 -2.1042 -3.6068 -20.1212 1.6712 -4.5731 12.4517 0.3449 -2.1335 7.1817 0.0000 -0.0000 0.0000 -85.9040 24.4403 45.9283 108.2857 -58.6981 -75.7667 -0.0000 0.0000 -30.6050 26.3976 2.7542 1.3662 -7.1250 0.0000 -0.0000 -0.1631 33.0539 0.0478 0.0000 -0.0000 0.0000 86.2626 -7.8551 41.2696 -118.1585 56.7810 -84.1224 0.0000 -0.0000 -11.3834 -27.8727 36.7221 -17.5483 7.1250 -0.0000 -0.0000 3.1600 10.1262 3.6715
-0.9357 17.4049 -30.8387 -6.8095 0.0684 5.4046 0.0000 0.0000 0.0000 -7.7120 -4.7460 -33.1249 24.4439 19.5198 103.0938 -0.1825 -9.1460 8.8496 0.0016 -0.2621 -0.7202 0.0000 0.0000 0.0000 34.7943 7.3980 -13.1212 -5.8231 -14.2547 44.2675 -0.9790 -10.2391 -25.0205 -0.3692 3.9027 -10.8030 3.6964 0.6284 18.1989 3.3827 2.0004 -0.5075 1.0702 0.8503 -10.8215 -1.8248 -3.8573 -19.4073 1.4158 -4.9623 12.5906 0.1812 -2.3352 7.1023 -0.0000 0.0000 0.0000 -85.0853 25.9995 46.9133 109.7404 -58.4751 -77.0082 -0.0000 0.0000 -31.2252 25.9029 2.6804 1.3010 -7.1250 0.0000 -0.0000 -0.5637 32.9586 0.1663 -0.0000 0.0000 0.0000 86.6693 -8.5737 40.8737 -121.4203 55.9194 -86.8380 0.0000 -0.0000 -12.0469 -26.2392 36.9187 -16.4931 7.1250 -0.0000 -0.0000 4.0623 9.8822 4.7101
-0.9291 17.4997 -30.3216 -7.0123 0.2594 5.2861 0.0000 0.0000 0.0000 -7.5562 -5.1914 -34.6937 23.8909 19.6331 101.4435 -0.1876 -8.6950 7.5814 0.0245 -1.0106 -2.7780 0.0000 0.0000 0.0000 35.1220 6.6856 -10.7469 -5.5635 -13.9916 43.2038 -0.8415 -9.8409 -23.5401 -0.5275 4.6544 -12.9255 4.1872 0.9455 18.0688 3.2288 2.5246 -0.8951 0.4851 1.0564 -11.1527 -1.7176 -4.0743 -18.1143 1.3894 -5.3012 12.4509 0.1424 -2.5061 6.8438 -0.0000 -0.0000 0.0000 -84.2408 27.7176 47.8126 110.9570 -58.2737 -78.0441 -0.0000 0.0000 -31.6437 25.2323 2.3037 1.0852 -7.1250 0.0000 -0.0000 -1.0971 32.5248 0.3352 -0.0000 -0.0000 0.0000 87.0682 -9.4467 40.5710 -124.7080 54.9190 -89.5452 0.0000 -0.0000 -12.4761 -25.5678 36.9576 -16.0475 7.1250 -0.0000 -0.0000 4.4242 9.7453 5.1232
-0.9092 17.6003 -29.7731 -7.1018 -0.1741 5.3866 0.0000 0.0000 0.0000 -7.7773 -5.0193 -35.9061 23.1538 19.7598 99.2565 -0.2159 -8.3366 4.6276 0.2367 -3.1310 -8.6437 0.0000 0.0000 0.0000 35.1421 6.4192 -8.3460 -5.2929 -13.7062 42.0730 -0.6628 -9.3608 -21.5037 -0.7204 5.4237 -15.1212 4.4417 1.4113 17.0611 3.1709 3.1054 -0.6649 0.1476 1.3345 -10.2888 -1.9782 -4.2821 -18.8270 1.4739 -5.5249 12.9060 0.1658 -2.6093 7.1242 0.0000 0.0000 0.0000 -84.1534 28.3373 47.8766 111.7585 -58.1333 -78.7253 -0.0000 0.0000 -31.8589 25.9687 0.7759 0.3779 -7.1250 0.0000 -0.0000 -0.4765 30.8426 0.1648 0.0000 0.0000 0.0000 86.9417 -8.7414 40.7159 -126.7939 54.2095 -91.2448 0.0000 -0.0000 -12.8255 -26.5260 37.7866 -17.0057 7.1250 -0.0000 -0.0000 4.0969 10.8374 4.8052
-0.8917 17.7129 -29.2365 -7.2865 -0.2495 5.4391 0.0000 0.0000 0.0000 -7.8574 -5.2079 -36.9981 22.2779 19.8751 96.6735 -0.2045 -8.0486 1.9090 0.5961 -4.9426 -13.7449 0.0000 0.0000 0.0000 35.2172 5.7698 -6.2269 -5.0043 -13.3887 40.8413 -0.4570 -8.8058 -18.8845 -0.9405 6.1768 -17.2983 4.8316 1.7602 16.2871 3.1084 3.5806 -0.6220 -0.2318 1.5522 -9.7594 -1.9508 -4.4419 -18.9189 1.4156 -5.7427 13.1804 0.1116 -2.7148 7.2305 0.0000 0.0000 0.0000 -84.0742 29.4209 47.7429 112.9601 -57.9112 -79.7446 -0.0000 0.0000 -31.8411 27.6093 1.4764 0.7720 -7.1250 0.0000 -0.0000 0.8298 31.6451 -0.2711 0.0000 0.0000 0.0000 86.9200 -8.4376 40.9034 -128.6366 53.5308 -92.7332 0.0000 -0.0000 -12.7090 -26.9295 37.7265 -17.2667 7.1250 -0.0000 -0.0000 3.8738 10.8862 4.5451
-0.8794 17.8479 -28.7131 -7.3283 0.2646 5.2069 0.0000 0.0000 0.0000 -8.1354 -6.0367 -37.6915 21.2150 19.9646 93.5545 -0.1542 -6.9746 3.2489 0.1188 -2.2217 -6.1186 0.0000 0.0000 0.0000 35.1626 4.6491 -4.1890 -4.7022 -13.0404 39.5200 -0.2626 -8.0781 -15.7908 -1.1496 6.8080 -19.1477 5.1537 1.8346 16.3668 3.0566 3.7542 -0.7917 -0.5147 1.6094 -9.9642 -2.0543 -4.5732 -18.8656 1.4217 -5.9068 13.6728 0.1051 -2.7946 7.3897 -0.0000 -0.0000 0.0000 -84.2649 30.7136 47.2987 113.9278 -57.7221 -80.5636 -0.0000 0.0000 -31.9792 26.1412 -0.6979 -0.3425 -7.1250 0.0000 -0.0000 -0.3333 29.2022 0.1283 -0.0000 -0.0000 0.0000 86.7526 -8.6890 41.1850 -130.5158 52.7853 -94.2372 0.0000 -0.0000 -12.0824 -26.6902 37.4455 -16.9966 7.1250 -0.0000 -0.0000 3.9375 10.5368 4.6010
-0.8657 17.9847 -28.1798 -7.0714 0.8585 4.9718 0.0000 0.0000 0.0000 -8.8187 -7.0124 -38.1273 20.0016 20.0000 90.0046 -0.1193 -6.1552 3.0130 0.0531 -1.4873 -4.0908 0.0000 0.0000 0.0000 34.7143 3.4461 -2.2679 -4.4022 -12.6772 38.1718 -0.0639 -7.5764 -12.0912 -1.2541 7.0995 -20.0106 5.0522 1.7413 16.4933 3.0982 3.6485 -1.1298 -0.3952 1.5504 -10.4276 -2.4952 -4.6110 -18.1885 1.4099 -5.8661 14.1129 0.1851 -2.8030 7.4335 -0.0000 -0.0000 0.0000 -85.1605 32.2455 46.0653 114.6576 -57.5732 -81.1802 -0.0000 0.0000 -32.6875 26.1360 -0.3354 -0.1646 -7.1250 0.0000 -0.0000 -0.3374 29.6060 0.1267 -0.0000 -0.0000 0.0000 86.1017 -9.1589 41.9422 -131.9663 52.1710 -95.3876 0.0000 -0.0000 -11.5029 -26.0902 37.8698 -16.7308 7.1250 -0.0000 -0.0000 4.3415 10.8044 5.0916
-0.8518 18.1056 -27.6460 -6.9482 1.2619 4.7518 0.0000 0.0000 0.0000 -9.3511 -7.7578 -38.4050 18.7020 19.9596 86.2024 -0.0997 -5.6719 1.0440 0.1828 -2.7536 -7.5935 0.0000 0.0000 0.0000 34.3488 2.3864 -0.4268 -4.0972 -12.2886 36.7607 0.1085 -7.5162 -7.7966 -1.2257 7.0217 -19.7796 5.5728 2.0230 16.3383 2.5524 4.0197 -0.6126 -1.3542 1.7099 -9.6701 -1.5514 -4.9561 -21.1182 1.2182 -6.5281 15.2929 -0.1954 -3.0452 8.2965 -0.0000 -0.0000 0.0000 -84.2590 31.5493 45.9745 114.8348 -57.5362 -81.3297 -0.0000 0.0000 -33.6331 25.9717 0.6820 0.3322 -7.1250 0.0000 -0.0000 -0.4731 30.7382 0.1648 -0.0000 -0.0000 0.0000 86.8393 -7.5806 41.4994 -132.5518 51.9130 -95.8493 0.0000 -0.0000 -10.8484 -26.0838 38.3587 -16.8990 7.1250 -0.0000 -0.0000 4.4503 11.2953 5.2500
-0.8369 18.2115 -27.1146 -6.8501 1.9079 4.4408 0.0000 0.0000 0.0000 -9.8507 -8.6323 -38.3593 17.3437 19.8300 82.2122 -0.0741 -5.0708 0.1842 0.2315 -3.0968 -8.5483 0.0000 0.0000 0.0000 33.9866 1.1406 1.2967 -3.7866 -11.8709 35.2770 0.1986 -7.8733 -2.8403 -1.1427 6.7881 -19.0891 5.3713 1.7966 16.2869 2.8457 3.7791 -1.6558 -0.8791 1.5681 -10.8550 -2.3085 -4.6856 -16.3911 1.4159 -6.0622 14.1149 0.1756 -2.9016 7.1272 0.0000 0.0000 0.0000 -85.8207 35.0646 44.1334 115.3780 -57.4208 -81.7877 -0.0000 0.0000 -34.2542 25.1781 0.7122 0.3348 -7.1250 0.0000 -0.0000 -1.1040 30.7657 0.3840 0.0000 0.0000 0.0000 85.7646 -9.9029 42.9664 -133.6217 51.4261 -96.6886 0.0000 -0.0000 -10.3831 -25.9266 38.5425 -16.8524 7.1250 -0.0000 -0.0000 4.5714 11.4381 5.4026
-0.8154 18.3448 -26.5509 -6.4566 2.6398 4.3511 0.0000 0.0000 0.0000 -10.7192 -9.5995 -37.9690 15.8542 19.5828 77.7971 -0.0490 -3.9348 1.1375 0.0285 -1.0905 -2.9980 0.0000 0.0000 0.0000 33.2473 0.0611 2.8878 -3.4781 -11.4315 33.7493 0.1453 -8.8067 2.8264 -1.1043 6.6771 -18.7623 5.5172 1.7938 15.5962 2.5363 3.6935 -1.3226 -1.2442 1.5384 -10.0544 -1.9148 -4.7847 -18.0279 1.3258 -6.2577 14.7483 0.0140 -2.9620 7.6015 0.0000 0.0000 0.0000 -86.0500 35.1234 43.1548 115.3349 -57.4301 -81.7514 -0.0000 0.0000 -35.1496 24.6543 0.6690 0.3071 -7.1250 0.0000 -0.0000 -1.5192 30.7139 0.5303 0.0000 0.0000 0.0000 85.7143 -9.0672 43.2063 -134.1729 51.1673 -97.1187 0.0000 -0.0000 -9.8501 -25.4663 38.4104 -16.4831 7.1250 -0.0000 -0.0000 4.7805 11.1834 5.6346
-0.7903 18.4744 -25.9654 -6.1709 2.7748 4.3741 0.0000 0.0000 0.0000 -11.4832 -9.9457 -37.5076 14.3070 19.2045 73.1400 -0.0243 -3.8638 -1.4643 0.3654 -3.8829 -10.7474 0.0000 0.0000 0.0000 32.6154 -0.2062 4.7332 -3.2027 -11.0162 32.3345 -0.0923 -10.5663 8.7867 -0.6933 5.3227 -14.8314 5.5555 1.9733 14.6067 2.3241 3.8378 -1.2809 -1.4832 1.6220 -9.4116 -1.8737 -4.9156 -18.3029 1.3780 -6.4625 15.1741 -0.0129 -3.0451 7.7935 0.0000 -0.0000 0.0000 -86.4494 35.8686 42.1176 115.1363 -57.4725 -81.5839 -0.0000 0.0000 -35.9131 24.6068 1.1380 0.5211 -7.1250 0.0000 -0.0000 -1.5680 31.2292 0.5280 0.0000 -0.0000 0.0000 85.4330 -9.0699 43.6856 -134.6701 50.9291 -97.5054 0.0000 -0.0000 -9.3884 -25.5006 38.6028 -16.5731 7.1250 -0.0000 -0.0000 4.8040 11.3856 5.6758
-0.7684 18.5714 -25.3957 -5.8931 2.8448 4.4517 0.0000 0.0000 0.0000 -12.1641 -10.3183 -37.1233 12.7313 18.6830 68.2889 -0.0072 -3.1153 -1.7691 0.5109 -4.5814 -12.7185 0.0000 0.0000 0.0000 32.1431 -0.0342 6.6300 -2.9455 -10.6062 30.9631 -0.3398 -12.3990 12.6954 -0.3662 3.8873 -10.7597 5.4529 2.1541 13.5983 2.1799 3.9792 -1.4333 -1.5655 1.7052 -8.9857 -1.9556 -4.9842 -17.5675 1.4970 -6.5725 15.1874 0.0437 -3.0974 7.6809 -0.0000 0.0000 0.0000 -86.9490 36.9828 41.0770 114.8817 -57.5263 -81.3692 -0.0000 0.0000 -36.3666 24.7688 1.4612 0.6741 -7.1250 0.0000 -0.0000 -1.4469 31.5869 0.4748 -0.0000 0.0000 0.0000 85.0730 -9.4634 44.3097 -135.0287 50.7544 -97.7835 0.0000 -0.0000 -8.9512 -26.5890 39.8949 -17.7980 7.1250 -0.0000 -0.0000 4.5371 12.9732 5.4549
-0.7514 18.6367 -24.8456 -5.5920 3.2668 4.3183 0.0000 0.0000 0.0000 -12.8439 -10.9961 -36.5142 11.1484 18.0069 63.2625 -0.0019 -2.3319 -1.4899 0.8602 -5.9143 -16.5361 0.0000 0.0000 0.0000 31.7732 -0.2144 8.3554 -2.7638 -10.3026 29.9622 -0.6754 -13.5469 16.3129 -0.0824 1.8511 -5.0942 5.3919 2.1906 13.0334 2.0056 3.9633 -1.4899 -1.6879 1.7051 -8.7140 -1.9724 -5.0808 -17.3120 1.6505 -6.7388 15.3355 0.0810 -3.1632 7.6954 0.0000 0.0000 0.0000 -87.3515 37.8089 40.0543 114.4644 -57.6131 -81.0170 -0.0000 0.0000 -36.4813 24.8978 1.6130 0.7485 -7.1250 0.0000 -0.0000 -1.3475 31.7562 0.4367 0.0000 0.0000 0.0000 84.7908 -9.4337 44.6065 -135.6061 50.4681 -98.2297 0.0000 -0.0000 -10.3433 -26.4858 43.8071 -19.0303 7.1250 -0.0000 -0.0000 5.5495 16.8132 6.9444
